<svg version="1.1" xmlns="http://www.w3.org/2000/svg" viewBox="0 0 351.40109142492656 433.82311496757353" width="702.8021828498531" height="867.6462299351471">
  <!-- svg-source:excalidraw -->
  
  <defs>
    <style class="style-fonts">
      @font-face {
        font-family: "Virgil";
        src: url("https://excalidraw.com/Virgil.woff2");
      }
      @font-face {
        font-family: "Cascadia";
        src: url("https://excalidraw.com/Cascadia.woff2");
      }
      @font-face {
        font-family: "Assistant";
        src: url("https://excalidraw.com/Assistant-Regular.woff2");
      }
    </style>
    
  </defs>
  <g stroke-linecap="round"><g transform="translate(339.5559674754743 171.64775354796492) rotate(0 -27.38050897538784 123.60344051746492)" fill-rule="evenodd"><path d="M-1.43 1.54 L2.02 248.96 L-55.75 240.8 L-11.95 -0.23 L-1.53 0.12" stroke="none" stroke-width="0" fill="#ffec99" fill-rule="evenodd"></path><path d="M0 0 C1.09 49.09, 3.08 99.29, 0.78 247.99 M0 0 C-1.33 76.14, -1.16 151.61, 0.78 247.99 M0.78 247.99 C-19.23 246.51, -37.34 244.61, -55.54 240.95 M0.78 247.99 C-18.79 245.97, -37.49 243.35, -55.54 240.95 M-55.54 240.95 C-39.25 153.75, -24.02 68.94, -10.95 -0.78 M-55.54 240.95 C-42.12 180.39, -32.6 121.45, -10.95 -0.78 M-10.95 -0.78 C-7.67 -0.98, -7.38 -0.52, 0 0 M-10.95 -0.78 C-8.92 -0.78, -6.06 -0.44, 0 0 M0 0 C0 0, 0 0, 0 0 M0 0 C0 0, 0 0, 0 0" stroke="#f08c00" stroke-width="4" fill="none"></path></g></g><mask></mask><g stroke-linecap="round"><g transform="translate(294.96485285841413 172.4300538044046) rotate(0 -45.764565001719575 69.23357269490913)" fill-rule="evenodd"><path d="M-1.83 -0.76 L-55.37 151.56 L-93.36 98.58 L-31.87 -11.36 L-1.48 -0.76" stroke="none" stroke-width="0" fill="#ffec99" fill-rule="evenodd"></path><path d="M0 0 C-19.72 53.66, -39.35 111.82, -53.98 151.77 M0 0 C-15.98 49.56, -34.03 97.6, -53.98 151.77 M-53.98 151.77 C-63.73 139.97, -72.24 126.2, -91.53 100.13 M-53.98 151.77 C-68.32 132.84, -82.03 112.01, -91.53 100.13 M-91.53 100.13 C-77.87 72.32, -63.03 41.62, -32.86 -13.3 M-91.53 100.13 C-77.66 74.04, -62.17 46.12, -32.86 -13.3 M-32.86 -13.3 C-18.42 -10.34, -7.54 -1.77, 0 0 M-32.86 -13.3 C-25.39 -11.02, -19.16 -7.2, 0 0 M0 0 C0 0, 0 0, 0 0 M0 0 C0 0, 0 0, 0 0" stroke="#f08c00" stroke-width="4" fill="none"></path></g></g><mask></mask><g stroke-linecap="round"><g transform="translate(228.4693310610437 138.79114277749963) rotate(0 -80.18577628506421 53.97871769433591)" fill-rule="evenodd"><path d="M0.42 0.81 L-138.84 143.19 L-158.75 117.29 L-31.7 -32.07 L-1.32 0.94" stroke="none" stroke-width="0" fill="#ffec99" fill-rule="evenodd"></path><path d="M0 0 C-35.81 36.01, -74.65 73.51, -136.9 141.6 M0 0 C-51.5 52.12, -100.57 103.65, -136.9 141.6 M-136.9 141.6 C-144.96 135.3, -151.81 124.83, -160.37 117.35 M-136.9 141.6 C-144.31 134.66, -150.05 127.38, -160.37 117.35 M-160.37 117.35 C-132.67 84.19, -101.55 48.29, -31.29 -33.64 M-160.37 117.35 C-120.71 73.16, -82.4 27.47, -31.29 -33.64 M-31.29 -33.64 C-26.14 -24.87, -15.76 -19.76, 0 0 M-31.29 -33.64 C-23.74 -26.6, -17.2 -18.87, 0 0 M0 0 C0 0, 0 0, 0 0 M0 0 C0 0, 0 0, 0 0" stroke="#f08c00" stroke-width="4" fill="none"></path></g></g><mask></mask><g stroke-linecap="round"><g transform="translate(190.1366184955009 88.72392636536196) rotate(0 -75.49197474642631 19.94865653921108)" fill-rule="evenodd"><path d="M-1.1 -1.08 L-118.81 69.82 L-149.91 22.25 L-11.37 -27.33 L-0.61 -0.63" stroke="none" stroke-width="0" fill="#ffec99" fill-rule="evenodd"></path><path d="M0 0 C-32.12 17.6, -64.96 38.19, -120.47 68.06 M0 0 C-28.65 16.67, -56.54 32.98, -120.47 68.06 M-120.47 68.06 C-129.67 56.38, -136.36 40.81, -150.98 21.9 M-120.47 68.06 C-130.12 54.55, -139.1 40.48, -150.98 21.9 M-150.98 21.9 C-123.26 12.85, -94.95 1.08, -9.39 -28.16 M-150.98 21.9 C-103.29 5.3, -54 -11.99, -9.39 -28.16 M-9.39 -28.16 C-7.69 -17.47, -1.46 -10.01, 0 0 M-9.39 -28.16 C-7.1 -18.9, -3.35 -11.6, 0 0 M0 0 C0 0, 0 0, 0 0 M0 0 C0 0, 0 0, 0 0" stroke="#f08c00" stroke-width="4" fill="none"></path></g></g><mask></mask><g stroke-linecap="round"><g transform="translate(178.40211464890717 37.092109440344984) rotate(0 -82.53267705438316 1.9557506410991223)" fill-rule="evenodd"><path d="M-1.07 1.86 L-166.35 30.94 L-133.31 -25.68 L0.22 -18.3 L-1.18 1.74" stroke="none" stroke-width="0" fill="#ffec99" fill-rule="evenodd"></path><path d="M0 0 C-48.79 7.87, -94.87 17.36, -165.85 29.73 M0 0 C-54.07 8.98, -107.66 18.28, -165.85 29.73 M-165.85 29.73 C-159.22 17.3, -148.77 5.63, -131.43 -25.82 M-165.85 29.73 C-155.58 11.5, -145.41 -5.05, -131.43 -25.82 M-131.43 -25.82 C-89.41 -22.67, -41.8 -22.68, 0.78 -17.99 M-131.43 -25.82 C-82.69 -23.8, -36.05 -21.54, 0.78 -17.99 M0.78 -17.99 C1.89 -11.43, 1.7 -3.99, 0 0 M0.78 -17.99 C1.13 -12.95, 0.34 -7.04, 0 0 M0 0 C0 0, 0 0, 0 0 M0 0 C0 0, 0 0, 0 0" stroke="#f08c00" stroke-width="4" fill="none"></path></g></g><mask></mask><g stroke-linecap="round"><g transform="translate(176.78801517901502 11.359915290693136) rotate(0 81.37057909472259 80.73734501616443)" fill-rule="evenodd"><path d="M0.48 0.02 L162.86 3.93 L160.65 160.98 L108 160.32 L47.56 124.02 L13.67 87.96 L2.76 44.78 L0.76 -1.49" stroke="none" stroke-width="0" fill="#ffec99" fill-rule="evenodd"></path><path d="M0 0 C45.97 -2.36, 92.09 -1.74, 162.74 2.53 M0 0 C34.13 2.43, 69.75 2.05, 162.74 2.53 M162.74 2.53 C163.84 56.29, 164.54 111.77, 162.11 159.57 M162.74 2.53 C162.45 34.45, 161.01 65.96, 162.11 159.57 M162.11 159.57 C147.85 157.84, 133.3 158.88, 108.28 161.47 M162.11 159.57 C149.63 160.57, 136.16 161.22, 108.28 161.47 M108.28 161.47 C95.11 153.32, 81.7 146.7, 49.39 126.01 M108.28 161.47 C87.38 148, 66.76 136.64, 49.39 126.01 M49.39 126.01 C41.67 120.12, 34.06 108.92, 15.2 89.92 M49.39 126.01 C39.22 113.94, 28.65 101.74, 15.2 89.92 M15.2 89.92 C10.89 72.68, 6.82 56.42, 1.9 44.33 M15.2 89.92 C11.55 78.69, 8.18 66.87, 1.9 44.33 M1.9 44.33 C0.71 28.13, 1.89 9.56, 0 0 M1.9 44.33 C0.39 31.91, 0.45 18.07, 0 0 M0 0 C0 0, 0 0, 0 0 M0 0 C0 0, 0 0, 0 0" stroke="#f08c00" stroke-width="4" fill="none"></path></g></g><mask></mask><g stroke-linecap="round"><g transform="translate(179.13301520491723 15.702720188969137) rotate(0 79.49204869463807 78.45293694699569)"><path d="M-1 -0.81 C-0.01 10.14, -2.19 46.11, 5.79 66.44 C13.77 86.77, 30.22 106.38, 46.89 121.19 C63.56 136.01, 87.14 149.56, 105.81 155.35 C124.47 161.14, 149.89 155.6, 158.9 155.93 M0.68 1.38 C1.57 11.95, -2.43 44.67, 5.15 64.83 C12.74 84.98, 29.39 107.6, 46.19 122.31 C62.99 137.02, 87.42 147.49, 105.96 153.07 C124.49 158.65, 148.69 155.23, 157.38 155.8" stroke="#f08c00" stroke-width="4" fill="none"></path></g></g><mask></mask><g stroke-linecap="round"><g transform="translate(183.29121355477832 71.50779554703516) rotate(351.09770003558384 -72.21826646114164 12.988896845529098)"><path d="M0.59 0.98 C-23.29 5.38, -120.1 21.34, -144.31 25.6 M-0.55 0.44 C-24.5 5.09, -121.03 22.93, -145.19 26.93" stroke="#f08c00" stroke-width="4" fill="none"></path></g></g><mask></mask><g stroke-linecap="round"><g transform="translate(197.6444679773174 98.96508237779322) rotate(351.09770003558384 -66.50315184910903 23.89957019577352)"><path d="M0.13 -0.38 C-22.17 7.51, -110.99 40.45, -133.19 48.32 M-1.26 -1.63 C-23.78 5.82, -112.13 38.26, -134.24 46.47" stroke="#f08c00" stroke-width="4" fill="none"></path></g></g><mask></mask><g stroke-linecap="round"><g transform="translate(43.70275022804799 107.80866740987898) rotate(351.09770003558384 11.430229224065556 26.497349564879322)"><path d="M-0.18 0.52 C3.59 9.25, 18.79 43.2, 22.77 52.01 M-1.74 -0.25 C1.86 8.64, 17.58 44.45, 21.78 53.04" stroke="#f08c00" stroke-width="4" fill="none"></path></g></g><mask></mask><g stroke-linecap="round"><g transform="translate(195.75880316719463 108.18366572913625) rotate(0 -63.38581660618206 74.2964899564264)"><path d="M-0.09 -0.98 C-21.04 23.77, -104.69 124.01, -125.89 149.02 M-1.59 1.12 C-22.6 25.46, -105.26 122.8, -126.37 147.12" stroke="#f08c00" stroke-width="4" fill="none"></path></g></g><mask></mask><g stroke-linecap="round"><g transform="translate(229.0103790917492 138.31790641076373) rotate(0 -68.06181947057235 71.17915471349939)"><path d="M0.89 0.43 C-21.87 24.4, -113.88 119.09, -136.6 142.87 M-0.11 -0.39 C-23.05 23.31, -115.18 117.42, -137.8 141.01" stroke="#f08c00" stroke-width="4" fill="none"></path></g></g><mask></mask><g stroke-linecap="round"><g transform="translate(68.39976840310214 254.918466245874) rotate(0 12.469340971707993 12.469340971707936)"><path d="M-0.48 0.51 C3.64 4.72, 21.55 21.48, 25.62 25.68 M1.47 -0.27 C5.42 3.56, 20.88 19.94, 25.03 23.95" stroke="#f08c00" stroke-width="4" fill="none"></path></g></g><mask></mask><g stroke-linecap="round"><g transform="translate(261.2228432686611 160.13925311125257) rotate(0 -29.095128933985052 56.11203437268567)"><path d="M0.68 0.74 C-9.09 19.49, -49.4 94.53, -59.14 113 M-0.42 0.09 C-9.78 18.45, -47.28 92.55, -56.93 111.28" stroke="#f08c00" stroke-width="4" fill="none"></path></g></g><mask></mask><g stroke-linecap="round"><g transform="translate(292.39619569793103 175.72592932588748) rotate(0 -25.458237817236977 73.25737820878403)"><path d="M-0.95 0.77 C-9.48 24.95, -42.35 121.36, -50.49 145.8 M0.75 0.13 C-7.96 24.38, -42.76 122.73, -51.22 146.96" stroke="#f08c00" stroke-width="4" fill="none"></path></g></g><mask></mask><g stroke-linecap="round"><g transform="translate(204.07169714833321 273.40243360426626) rotate(0 17.57856387596803 24.828659893830945)"><path d="M0.42 -0.72 C6.63 7.57, 30.55 42.11, 36.28 50.51 M-0.81 1.52 C5.42 9.41, 30.14 40.59, 35.91 48.84" stroke="#f08c00" stroke-width="4" fill="none"></path></g></g><mask></mask><g stroke-linecap="round"><g transform="translate(329.3938732947172 172.8005182903313) rotate(0 -22.655285788962374 120.44100062282452)"><path d="M1.12 0.86 C-6.56 41.13, -37.94 200.88, -45.66 240.92 M0.25 0.26 C-7.66 40.8, -39.1 202.1, -46.79 242.47" stroke="#f08c00" stroke-width="4" fill="none"></path></g></g><mask></mask><g stroke-linecap="round"><g transform="translate(280.9659664738655 412.64340778833804) rotate(0 30.134240681627432 3.11733524292697)"><path d="M-0.35 0.03 C9.52 0.96, 50.29 5.39, 60.36 6.42 M1.67 -0.99 C11.29 0.08, 49.87 6.64, 59.47 8.05" stroke="#f08c00" stroke-width="4" fill="none"></path></g></g><mask></mask><g stroke-linecap="round"><g transform="translate(176.01567996199037 13.62449669368449) rotate(0 82.2214732594785 0)"><path d="M0.1 0.18 C27.53 0.17, 136.87 -0.04, 164.28 -0.05 M-1.31 -0.77 C25.98 -0.58, 135.72 1.08, 163.24 1.47" stroke="#f08c00" stroke-width="4" fill="none"></path></g></g><mask></mask><g stroke-linecap="round"><g transform="translate(339.1562243418357 171.7765551167123) rotate(0 0 -79.49204869463802)"><path d="M-0.17 -0.05 C-0.17 -26.55, -0.09 -132.31, 0.07 -158.84 M-1.71 -1.12 C-1.88 -27.42, -1.2 -131.07, -0.84 -157.23" stroke="#f08c00" stroke-width="4" fill="none"></path></g></g><mask></mask><g stroke-linecap="round"><g transform="translate(180.17212695255967 37.52406688945804) rotate(0 -85.20716330667074 14.547564466992554)"><path d="M0.07 0.14 C-28.18 4.96, -141.1 23.95, -169.63 28.86 M-1.36 -0.82 C-29.68 4.18, -142.29 25.55, -170.17 30.27" stroke="#f08c00" stroke-width="4" fill="none"></path></g></g><mask></mask><g stroke-linecap="round"><g transform="translate(179.13301520491723 20.898278927180783) rotate(0 -64.94448422764538 -3.6368911167481457)"><path d="M0.78 -0.23 C-21 -1.39, -108.76 -5.66, -130.63 -6.78 M-0.27 -1.4 C-21.67 -2.93, -106.43 -7.36, -128.31 -8.64" stroke="#f08c00" stroke-width="4" fill="none"></path></g></g><mask></mask><g stroke-linecap="round"><g transform="translate(47.16582325434183 13.62449669368449) rotate(0 -15.829632175502184 27.4177271930969)"><path d="M-0.74 0.5 C-6.24 9.74, -27.21 46.05, -32.23 55.2 M1.07 -0.29 C-4.71 8.6, -28.1 44.32, -33.48 53.26" stroke="#f08c00" stroke-width="4" fill="none"></path></g></g><mask></mask><g stroke-linecap="round"><g transform="translate(338.62658751469917 172.80909236843033) rotate(0 0 125.22186442035306)"><path d="M-0.57 0.36 C-0.31 42.11, 0.61 209.47, 0.82 251.01 M1.33 -0.49 C1.57 40.86, 0.48 207.35, 0.3 249.19" stroke="#f08c00" stroke-width="4" fill="none"></path></g></g><mask></mask></svg>