<svg height="511" version="1.1" width="753" xmlns="http://www.w3.org/2000/svg" xmlns:xlink="http://www.w3.org/1999/xlink" style="overflow: hidden; position: relative; top: -0.78125px;"><desc>Created with Raphaël 2.3.0</desc><defs></defs><rect x="0" y="0" width="753" height="511" rx="0" ry="0" fill="none" stroke="none" style=""></rect><path fill="none" stroke="#fff9c2" d="M731,25L595,526" stroke-width="8" opacity="0.5" style="opacity: 0.5;"></path><path fill="none" stroke="#fff9c2" d="M731,25L190,527" stroke-width="10" opacity="0.5" style="opacity: 0.5;"></path><path fill="none" stroke="#fff9c2" d="M731,25L731,263" stroke-width="9" opacity="0.5" style="opacity: 0.5;"></path><path fill="none" stroke="#fff9c2" d="M731,25L755,217" stroke-width="10" opacity="0.5" style="opacity: 0.5;"></path><path fill="none" stroke="#fff9c2" d="M731,25L771,-8" stroke-width="3" opacity="0.5" style="opacity: 0.5;"></path><path fill="none" stroke="#fff9c2" d="M731,25L552,487" stroke-width="4" opacity="0.5" style="opacity: 0.5;"></path><path fill="none" stroke="#fff9c2" d="M731,25L239,167" stroke-width="1" opacity="0.5" style="opacity: 0.5;"></path><path fill="none" stroke="#fff9c2" d="M731,25L-38,-20" stroke-width="5" opacity="0.5" style="opacity: 0.5;"></path><path fill="none" stroke="#fff9c2" d="M731,25L770,59" stroke-width="3" opacity="0.5" style="opacity: 0.5;"></path><path fill="none" stroke="#fff9c2" d="M731,25L169,390" stroke-width="11" opacity="0.5" style="opacity: 0.5;"></path><path fill="none" stroke="#fff9c2" d="M731,25L739,354" stroke-width="4" opacity="0.5" style="opacity: 0.5;"></path><path fill="none" stroke="#fff9c2" d="M731,25L170,363" stroke-width="4" opacity="0.5" style="opacity: 0.5;"></path><path fill="none" stroke="#fff9c2" d="M731,25L653,68" stroke-width="3" opacity="0.5" style="opacity: 0.5;"></path><path fill="none" stroke="#fff9c2" d="M731,25L296,-35" stroke-width="6" opacity="0.5" style="opacity: 0.5;"></path><path fill="none" stroke="#fff9c2" d="M731,25L404,269" stroke-width="1" opacity="0.5" style="opacity: 0.5;"></path><path fill="none" stroke="#fff9c2" d="M731,25L418,549" stroke-width="10" opacity="0.5" style="opacity: 0.5;"></path><path fill="none" stroke="#fff9c2" d="M731,25L527,251" stroke-width="10" opacity="0.5" style="opacity: 0.5;"></path><path fill="none" stroke="#fff9c2" d="M731,25L801,466" stroke-width="12" opacity="0.5" style="opacity: 0.5;"></path><path fill="none" stroke="#fff9c2" d="M731,25L148,-21" stroke-width="6" opacity="0.5" style="opacity: 0.5;"></path><path fill="none" stroke="#fff9c2" d="M731,25L661,247" stroke-width="4" opacity="0.5" style="opacity: 0.5;"></path><path fill="none" stroke="#fff9c2" d="M731,25L436,458" stroke-width="3" opacity="0.5" style="opacity: 0.5;"></path><path fill="none" stroke="#fff9c2" d="M731,25L-18,549" stroke-width="12" opacity="0.5" style="opacity: 0.5;"></path><path fill="none" stroke="#fff9c2" d="M731,25L259,151" stroke-width="4" opacity="0.5" style="opacity: 0.5;"></path><path fill="none" stroke="#fff9c2" d="M731,25L431,147" stroke-width="11" opacity="0.5" style="opacity: 0.5;"></path><path fill="none" stroke="#fff9c2" d="M731,25L777,492" stroke-width="1" opacity="0.5" style="opacity: 0.5;"></path><path fill="none" stroke="#fff9c2" d="M731,25L802,448" stroke-width="5" opacity="0.5" style="opacity: 0.5;"></path><path fill="none" stroke="#fff9c2" d="M731,25L412,512" stroke-width="9" opacity="0.5" style="opacity: 0.5;"></path><path fill="none" stroke="#fff9c2" d="M731,25L239,474" stroke-width="11" opacity="0.5" style="opacity: 0.5;"></path><path fill="none" stroke="#fff9c2" d="M731,25L277,89" stroke-width="8" opacity="0.5" style="opacity: 0.5;"></path><path fill="none" stroke="#fff9c2" d="M731,25L599,352" stroke-width="9" opacity="0.5" style="opacity: 0.5;"></path></svg>